<svg width="200" height="200" viewBox="0 0 200 200" fill="none" xmlns="http://www.w3.org/2000/svg">
<g clip-path="url(#clip0_501_204)">
<rect width="200" height="200" fill="black"/>
<path d="M71.2492 75.1219L25.543 115.248L28.3827 118.482L74.089 78.3566L71.2492 75.1219Z" fill="white"/>
<path d="M108.338 75.1025L47.957 128.111L50.7967 131.345L111.177 78.3371L108.338 75.1025Z" fill="white"/>
<path d="M145.238 75.1269L84.8574 128.135L87.6972 131.37L148.078 78.3616L145.238 75.1269Z" fill="white"/>
<path d="M87.6891 131.362H76.6309L108.231 75.1255H119.079L87.6891 131.362Z" fill="white"/>
<path d="M50.7341 131.362H39.6758L71.2758 75.1255H82.1242L50.7341 131.362Z" fill="white"/>
<path d="M142.77 99.0617L156.103 75.1255H145.254L132.236 98.2918L142.77 99.0617Z" fill="white"/>
<path d="M152.919 121.319C150.084 121.809 147.25 121.179 145.01 119.394C141.196 116.349 136.611 110.015 142.735 99.0271C152.044 82.3697 134.617 93.9879 134.617 93.9879C134.617 93.9879 115.23 122.333 148.719 122.333C179.725 122.333 174.755 98.2222 174.755 98.2222H162.997C162.997 98.2222 169.226 118.414 152.919 121.284V121.319Z" fill="white"/>
<path d="M25.5389 115.23V131.327H34.3925C34.3925 131.327 26.1688 130.138 26.1688 124.083C26.1688 119.919 29.1783 117.714 29.1783 117.714L25.5039 115.195L25.5389 115.23Z" fill="white"/>
<path d="M116.489 67.4621C120.161 67.4621 123.138 65.1276 123.138 62.2478C123.138 59.3681 120.161 57.0337 116.489 57.0337C112.817 57.0337 109.84 59.3681 109.84 62.2478C109.84 65.1276 112.817 67.4621 116.489 67.4621Z" fill="white"/>
<path d="M227.227 74.7056H-27.8984V75.5804H227.227V74.7056Z" fill="white"/>
<path d="M227.227 131.326H-27.8984V132.201H227.227V131.326Z" fill="white"/>
<path d="M227.227 117.189H-27.8984V118.064H227.227V117.189Z" fill="white"/>
<path d="M227.227 103.017H-27.8984V103.891H227.227V103.017Z" fill="white"/>
<path d="M227.227 88.8438H-27.8984V89.7186H227.227V88.8438Z" fill="white"/>
</g>
<defs>
<clipPath id="clip0_501_204">
<rect width="200" height="200" fill="white"/>
</clipPath>
</defs>
</svg>
