<svg width="31" height="26" viewBox="0 0 31 26" fill="none" xmlns="http://www.w3.org/2000/svg">
<path fill-rule="evenodd" clip-rule="evenodd" d="M7.38001 25.9153C6.95316 25.9153 6.57337 25.6443 6.43445 25.2407L0.637203 8.39719C0.371571 7.62541 1.09251 6.87765 1.87347 7.11493L8.65543 9.17545C9.11358 9.31464 9.6061 9.10954 9.83004 8.68631L14.1444 0.532325C14.5142 -0.16658 15.5105 -0.180109 15.8991 0.508497L20.5387 8.72911C20.7658 9.13154 21.2391 9.32594 21.6835 9.19936L29.11 7.08402C29.8963 6.86007 30.6045 7.62296 30.3227 8.39041L24.1294 25.2599C23.9849 25.6536 23.6101 25.9153 23.1907 25.9153H15H7.38001Z" fill="#278CFF"/>
<path d="M16.3604 11.0167V20.9152H15.1162V12.3019H15.0615L12.6553 13.9015V12.6573L15.1162 11.0167H16.3604Z" fill="white"/>
</svg>
