<svg width="55" height="24" viewBox="0 0 55 24" fill="none" xmlns="http://www.w3.org/2000/svg">
<path d="M54.6625 5.46582H0.40625V5.7364H54.6625V5.46582Z" fill="#030303"/>
<path d="M54.6625 22.9785H0.40625V23.2491H54.6625V22.9785Z" fill="#030303"/>
<path d="M54.6625 18.6055H0.40625V18.876H54.6625V18.6055Z" fill="#030303"/>
<path d="M54.6625 14.2207H0.40625V14.4913H54.6625V14.2207Z" fill="#030303"/>
<path d="M54.6625 9.83789H0.40625V10.1085H54.6625V9.83789Z" fill="#030303"/>
<path d="M18.5696 5.59384L4.43359 18.0039L5.31188 19.0043L19.4479 6.59427L18.5696 5.59384Z" fill="#030303"/>
<path d="M30.0398 5.58896L11.3652 21.9834L12.2435 22.9838L30.918 6.58936L30.0398 5.58896Z" fill="#030303"/>
<path d="M41.4538 5.59677L22.7793 21.9912L23.6576 22.9916L42.3321 6.5972L41.4538 5.59677Z" fill="#030303"/>
<path d="M23.6545 22.9884H20.2344L30.0076 5.5957H33.3628L23.6545 22.9884Z" fill="#030303"/>
<path d="M12.2248 22.9884H8.80469L18.578 5.5957H21.9331L12.2248 22.9884Z" fill="#030303"/>
<path d="M40.6894 12.9987L44.813 5.5957H41.4578L37.4316 12.7606L40.6894 12.9987Z" fill="#030303"/>
<path d="M43.8281 19.8818C42.9515 20.0334 42.0748 19.8386 41.3821 19.2866C40.2024 18.345 38.7846 16.386 40.6786 12.9875C43.5575 7.83572 38.1676 11.429 38.1676 11.429C38.1676 11.429 32.1716 20.1957 42.5294 20.1957C52.1186 20.1957 50.5818 12.7386 50.5818 12.7386H46.9452C46.9452 12.7386 48.8717 18.9835 43.8281 19.871V19.8818Z" fill="#030303"/>
<path d="M4.43271 17.9991V22.9778H7.17095C7.17095 22.9778 4.62752 22.6098 4.62752 20.7374C4.62752 19.4494 5.55831 18.7675 5.55831 18.7675L4.42188 17.9883L4.43271 17.9991Z" fill="#030303"/>
<path d="M32.5622 3.2253C33.698 3.2253 34.6186 2.50327 34.6186 1.61263C34.6186 0.721995 33.698 0 32.5622 0C31.4265 0 30.5059 0.721995 30.5059 1.61263C30.5059 2.50327 31.4265 3.2253 32.5622 3.2253Z" fill="#030303"/>
</svg>
